<mxfile host="app.diagrams.net" agent="Mozilla/5.0 (Windows NT 10.0; Win64; x64) AppleWebKit/537.36 (KHTML, like Gecko) Chrome/141.0.0.0 Safari/537.36 Edg/141.0.0.0" version="28.2.8">
  <diagram name="第 1 页" id="h3fppXW2EpwtA7CSHTAy">
    <mxGraphModel dx="743" dy="556" grid="1" gridSize="10" guides="1" tooltips="1" connect="1" arrows="1" fold="1" page="1" pageScale="1" pageWidth="827" pageHeight="1169" math="0" shadow="0">
      <root>
        <mxCell id="0" />
        <mxCell id="1" parent="0" />
        <mxCell id="SQNQDR0_UQAJOyZwm5Ot-13" value="" style="edgeStyle=orthogonalEdgeStyle;rounded=0;orthogonalLoop=1;jettySize=auto;html=1;" edge="1" parent="1" source="SQNQDR0_UQAJOyZwm5Ot-1" target="SQNQDR0_UQAJOyZwm5Ot-2">
          <mxGeometry relative="1" as="geometry" />
        </mxCell>
        <mxCell id="SQNQDR0_UQAJOyZwm5Ot-1" value="EFS_IDLE" style="ellipse;whiteSpace=wrap;html=1;aspect=fixed;fontSize=8;" vertex="1" parent="1">
          <mxGeometry x="400" y="160" width="80" height="80" as="geometry" />
        </mxCell>
        <mxCell id="SQNQDR0_UQAJOyZwm5Ot-14" value="" style="edgeStyle=orthogonalEdgeStyle;rounded=0;orthogonalLoop=1;jettySize=auto;html=1;" edge="1" parent="1" source="SQNQDR0_UQAJOyZwm5Ot-2" target="SQNQDR0_UQAJOyZwm5Ot-3">
          <mxGeometry relative="1" as="geometry" />
        </mxCell>
        <mxCell id="SQNQDR0_UQAJOyZwm5Ot-2" value="SU_PD_PS" style="ellipse;whiteSpace=wrap;html=1;aspect=fixed;fontSize=8;" vertex="1" parent="1">
          <mxGeometry x="400" y="280" width="80" height="80" as="geometry" />
        </mxCell>
        <mxCell id="SQNQDR0_UQAJOyZwm5Ot-15" value="" style="edgeStyle=orthogonalEdgeStyle;rounded=0;orthogonalLoop=1;jettySize=auto;html=1;" edge="1" parent="1" source="SQNQDR0_UQAJOyZwm5Ot-3" target="SQNQDR0_UQAJOyZwm5Ot-4">
          <mxGeometry relative="1" as="geometry" />
        </mxCell>
        <mxCell id="SQNQDR0_UQAJOyZwm5Ot-3" value="SU_PS_CS" style="ellipse;whiteSpace=wrap;html=1;aspect=fixed;fontSize=8;" vertex="1" parent="1">
          <mxGeometry x="400" y="400" width="80" height="80" as="geometry" />
        </mxCell>
        <mxCell id="SQNQDR0_UQAJOyZwm5Ot-16" value="" style="edgeStyle=orthogonalEdgeStyle;rounded=0;orthogonalLoop=1;jettySize=auto;html=1;" edge="1" parent="1" source="SQNQDR0_UQAJOyZwm5Ot-4" target="SQNQDR0_UQAJOyZwm5Ot-5">
          <mxGeometry relative="1" as="geometry" />
        </mxCell>
        <mxCell id="SQNQDR0_UQAJOyZwm5Ot-4" value="EFS_SET" style="ellipse;whiteSpace=wrap;html=1;aspect=fixed;fontSize=8;" vertex="1" parent="1">
          <mxGeometry x="400" y="520" width="80" height="80" as="geometry" />
        </mxCell>
        <mxCell id="SQNQDR0_UQAJOyZwm5Ot-17" style="edgeStyle=orthogonalEdgeStyle;rounded=0;orthogonalLoop=1;jettySize=auto;html=1;exitX=0.5;exitY=1;exitDx=0;exitDy=0;entryX=0.5;entryY=0;entryDx=0;entryDy=0;" edge="1" parent="1" source="SQNQDR0_UQAJOyZwm5Ot-5" target="SQNQDR0_UQAJOyZwm5Ot-6">
          <mxGeometry relative="1" as="geometry" />
        </mxCell>
        <mxCell id="SQNQDR0_UQAJOyZwm5Ot-18" style="edgeStyle=orthogonalEdgeStyle;rounded=0;orthogonalLoop=1;jettySize=auto;html=1;exitX=1;exitY=0.5;exitDx=0;exitDy=0;entryX=0.5;entryY=1;entryDx=0;entryDy=0;" edge="1" parent="1" source="SQNQDR0_UQAJOyZwm5Ot-5" target="SQNQDR0_UQAJOyZwm5Ot-7">
          <mxGeometry relative="1" as="geometry" />
        </mxCell>
        <mxCell id="SQNQDR0_UQAJOyZwm5Ot-5" value="PGM_READ" style="ellipse;whiteSpace=wrap;html=1;aspect=fixed;fontSize=8;" vertex="1" parent="1">
          <mxGeometry x="400" y="640" width="80" height="80" as="geometry" />
        </mxCell>
        <mxCell id="SQNQDR0_UQAJOyZwm5Ot-19" value="" style="edgeStyle=orthogonalEdgeStyle;rounded=0;orthogonalLoop=1;jettySize=auto;html=1;" edge="1" parent="1" source="SQNQDR0_UQAJOyZwm5Ot-6" target="SQNQDR0_UQAJOyZwm5Ot-8">
          <mxGeometry relative="1" as="geometry" />
        </mxCell>
        <mxCell id="SQNQDR0_UQAJOyZwm5Ot-6" value="H_A" style="ellipse;whiteSpace=wrap;html=1;aspect=fixed;fontSize=8;" vertex="1" parent="1">
          <mxGeometry x="400" y="760" width="80" height="80" as="geometry" />
        </mxCell>
        <mxCell id="SQNQDR0_UQAJOyZwm5Ot-22" value="" style="edgeStyle=orthogonalEdgeStyle;rounded=0;orthogonalLoop=1;jettySize=auto;html=1;entryX=0.5;entryY=1;entryDx=0;entryDy=0;" edge="1" parent="1" source="SQNQDR0_UQAJOyZwm5Ot-7" target="SQNQDR0_UQAJOyZwm5Ot-11">
          <mxGeometry relative="1" as="geometry" />
        </mxCell>
        <mxCell id="SQNQDR0_UQAJOyZwm5Ot-7" value="EFS_HOLD" style="ellipse;whiteSpace=wrap;html=1;aspect=fixed;fontSize=8;" vertex="1" parent="1">
          <mxGeometry x="600" y="400" width="80" height="80" as="geometry" />
        </mxCell>
        <mxCell id="SQNQDR0_UQAJOyZwm5Ot-20" value="" style="edgeStyle=orthogonalEdgeStyle;rounded=0;orthogonalLoop=1;jettySize=auto;html=1;" edge="1" parent="1" source="SQNQDR0_UQAJOyZwm5Ot-8" target="SQNQDR0_UQAJOyZwm5Ot-9">
          <mxGeometry relative="1" as="geometry" />
        </mxCell>
        <mxCell id="SQNQDR0_UQAJOyZwm5Ot-8" value="A_SWITCH" style="ellipse;whiteSpace=wrap;html=1;aspect=fixed;fontSize=8;" vertex="1" parent="1">
          <mxGeometry x="400" y="880" width="80" height="80" as="geometry" />
        </mxCell>
        <mxCell id="SQNQDR0_UQAJOyZwm5Ot-21" value="" style="edgeStyle=orthogonalEdgeStyle;rounded=0;orthogonalLoop=1;jettySize=auto;html=1;entryX=0;entryY=0.5;entryDx=0;entryDy=0;exitX=0;exitY=0.5;exitDx=0;exitDy=0;" edge="1" parent="1" source="SQNQDR0_UQAJOyZwm5Ot-9" target="SQNQDR0_UQAJOyZwm5Ot-5">
          <mxGeometry relative="1" as="geometry">
            <mxPoint x="340" y="1050" as="targetPoint" />
            <Array as="points">
              <mxPoint x="370" y="1040" />
              <mxPoint x="370" y="680" />
            </Array>
          </mxGeometry>
        </mxCell>
        <mxCell id="SQNQDR0_UQAJOyZwm5Ot-9" value="SU_A" style="ellipse;whiteSpace=wrap;html=1;aspect=fixed;fontSize=8;" vertex="1" parent="1">
          <mxGeometry x="400" y="1000" width="80" height="80" as="geometry" />
        </mxCell>
        <mxCell id="SQNQDR0_UQAJOyZwm5Ot-23" value="" style="edgeStyle=orthogonalEdgeStyle;rounded=0;orthogonalLoop=1;jettySize=auto;html=1;" edge="1" parent="1" source="SQNQDR0_UQAJOyZwm5Ot-11" target="SQNQDR0_UQAJOyZwm5Ot-12">
          <mxGeometry relative="1" as="geometry" />
        </mxCell>
        <mxCell id="SQNQDR0_UQAJOyZwm5Ot-11" value="H_PS_CS" style="ellipse;whiteSpace=wrap;html=1;aspect=fixed;fontSize=8;" vertex="1" parent="1">
          <mxGeometry x="600" y="280" width="80" height="80" as="geometry" />
        </mxCell>
        <mxCell id="SQNQDR0_UQAJOyZwm5Ot-24" style="edgeStyle=orthogonalEdgeStyle;rounded=0;orthogonalLoop=1;jettySize=auto;html=1;exitX=0;exitY=0.5;exitDx=0;exitDy=0;entryX=1;entryY=0.5;entryDx=0;entryDy=0;" edge="1" parent="1" source="SQNQDR0_UQAJOyZwm5Ot-12" target="SQNQDR0_UQAJOyZwm5Ot-1">
          <mxGeometry relative="1" as="geometry" />
        </mxCell>
        <mxCell id="SQNQDR0_UQAJOyZwm5Ot-12" value="H_PD_PS" style="ellipse;whiteSpace=wrap;html=1;aspect=fixed;fontSize=8;" vertex="1" parent="1">
          <mxGeometry x="600" y="160" width="80" height="80" as="geometry" />
        </mxCell>
      </root>
    </mxGraphModel>
  </diagram>
</mxfile>
